<svg width="500" height="500" viewBox="0 0 500 500" fill="none" xmlns="http://www.w3.org/2000/svg">
<rect width="500" height="500" fill="#171717"/>
<path d="M178.823 206.68C179.903 206.68 180.823 207.06 181.583 207.82C182.343 208.58 182.722 209.5 182.722 210.58V236.2C182.722 236.88 182.682 237.54 182.603 238.18C182.522 238.78 182.423 239.38 182.302 239.98C181.982 241.18 181.562 242.28 181.043 243.28C180.483 244.32 179.803 245.24 179.003 246.04C178.163 246.88 177.243 247.58 176.243 248.14C175.723 248.42 175.182 248.68 174.622 248.92C174.062 249.12 173.483 249.28 172.883 249.4C172.243 249.56 171.583 249.68 170.903 249.76C170.263 249.84 169.583 249.88 168.863 249.88C167.583 249.88 166.263 249.72 164.903 249.4C164.302 249.28 163.722 249.12 163.162 248.92C162.602 248.68 162.042 248.42 161.483 248.14C160.962 247.82 160.483 247.5 160.042 247.18C159.603 246.82 159.162 246.44 158.722 246.04C157.922 245.16 157.263 244.24 156.743 243.28C156.422 242.76 156.163 242.22 155.962 241.66C155.802 241.1 155.642 240.54 155.483 239.98C155.203 238.86 155.062 237.6 155.062 236.2V235.84C155.062 234.64 155.483 233.62 156.323 232.78C157.202 231.9 158.243 231.48 159.443 231.52C160.643 231.52 161.663 231.94 162.503 232.78C163.343 233.7 163.763 234.72 163.763 235.84V235.9C163.763 236.82 163.883 237.64 164.123 238.36C164.203 238.76 164.323 239.12 164.483 239.44C164.683 239.72 164.882 240.02 165.083 240.34C165.522 240.9 166.043 241.3 166.643 241.54C167.243 241.82 167.983 241.96 168.863 241.96C169.783 241.96 170.543 241.82 171.142 241.54C171.743 241.3 172.263 240.9 172.703 240.34C172.903 240.02 173.083 239.72 173.243 239.44C173.443 239.12 173.583 238.76 173.662 238.36C173.903 237.64 174.022 236.8 174.022 235.84V215.08C174.022 214.92 173.963 214.78 173.843 214.66C173.722 214.54 173.583 214.48 173.423 214.48H162.203C161.123 214.48 160.203 214.1 159.443 213.34C158.722 212.66 158.323 211.76 158.243 210.64C158.243 209.52 158.622 208.58 159.382 207.82C159.743 207.5 160.142 207.24 160.583 207.04C161.062 206.8 161.583 206.68 162.142 206.68H178.823Z" fill="white"/>
<path d="M213.796 212.44C214.356 213.56 214.776 214.68 215.056 215.8C215.176 216.36 215.276 216.96 215.356 217.6C215.436 218.2 215.476 218.84 215.476 219.52V236.2C215.476 236.88 215.436 237.54 215.356 238.18C215.276 238.78 215.176 239.38 215.056 239.98C214.736 241.18 214.316 242.28 213.796 243.28C213.236 244.32 212.556 245.24 211.756 246.04C210.916 246.88 209.996 247.58 208.996 248.14C208.476 248.42 207.936 248.68 207.376 248.92C206.816 249.12 206.236 249.28 205.636 249.4C204.996 249.56 204.336 249.68 203.656 249.76C203.016 249.84 202.336 249.88 201.616 249.88C200.336 249.88 199.016 249.72 197.656 249.4C197.056 249.28 196.476 249.12 195.916 248.92C195.356 248.68 194.796 248.42 194.236 248.14C193.716 247.82 193.236 247.5 192.796 247.18C192.356 246.82 191.916 246.44 191.476 246.04C190.676 245.16 190.016 244.24 189.496 243.28C189.176 242.76 188.916 242.22 188.716 241.66C188.556 241.1 188.396 240.54 188.236 239.98C187.956 238.86 187.816 237.6 187.816 236.2V219.52C187.816 218.12 187.956 216.88 188.236 215.8C188.396 215.2 188.556 214.64 188.716 214.12C188.916 213.56 189.176 213 189.496 212.44C190.016 211.48 190.676 210.56 191.476 209.68C191.916 209.28 192.356 208.92 192.796 208.6C193.236 208.24 193.716 207.92 194.236 207.64C195.236 207.08 196.376 206.64 197.656 206.32C199.016 206 200.336 205.84 201.616 205.84C202.336 205.84 203.016 205.88 203.656 205.96C204.336 206.04 204.996 206.16 205.636 206.32C206.916 206.64 208.036 207.08 208.996 207.64C209.556 207.92 210.056 208.24 210.496 208.6C210.936 208.92 211.356 209.28 211.756 209.68C212.556 210.52 213.236 211.44 213.796 212.44ZM196.516 219.88V235.84C196.516 236.8 196.636 237.64 196.876 238.36C196.956 238.76 197.076 239.12 197.236 239.44C197.436 239.72 197.636 240.02 197.836 240.34C198.276 240.9 198.796 241.3 199.396 241.54C199.996 241.82 200.736 241.96 201.616 241.96C202.536 241.96 203.296 241.82 203.896 241.54C204.496 241.3 205.016 240.9 205.456 240.34C205.656 240.02 205.836 239.72 205.996 239.44C206.196 239.12 206.336 238.76 206.416 238.36C206.656 237.64 206.776 236.8 206.776 235.84V219.88C206.776 219 206.656 218.16 206.416 217.36C206.256 216.72 205.936 216.06 205.456 215.38C205.016 214.82 204.496 214.42 203.896 214.18C203.296 213.9 202.536 213.76 201.616 213.76C200.736 213.76 199.996 213.9 199.396 214.18C198.796 214.42 198.276 214.82 197.836 215.38C197.356 216.06 197.036 216.72 196.876 217.36C196.636 218.16 196.516 219 196.516 219.88Z" fill="white"/>
<path d="M250.171 243.82C250.331 244.46 250.351 245.1 250.231 245.74C250.111 246.34 249.851 246.9 249.451 247.42C249.051 247.94 248.571 248.34 248.011 248.62C247.651 248.78 247.271 248.88 246.871 248.92C246.631 248.96 246.391 249 246.151 249.04C245.631 249.04 245.191 248.96 244.831 248.8C244.431 248.72 244.031 248.5 243.631 248.14C243.311 247.94 243.011 247.62 242.731 247.18C242.611 246.98 242.491 246.78 242.371 246.58C242.291 246.38 242.231 246.16 242.191 245.92L241.711 244.12L241.471 243.16L241.231 242.26C241.231 242.22 241.211 242.2 241.171 242.2C241.171 242.16 241.171 242.12 241.171 242.08L241.051 241.96C240.971 241.88 240.911 241.84 240.871 241.84C240.831 241.84 240.791 241.84 240.751 241.84C240.751 241.8 240.711 241.78 240.631 241.78H229.171C229.131 241.78 229.091 241.8 229.051 241.84C229.051 241.84 229.031 241.84 228.991 241.84C228.951 241.84 228.891 241.88 228.811 241.96C228.731 241.96 228.691 242 228.691 242.08C228.651 242.12 228.631 242.16 228.631 242.2C228.631 242.2 228.611 242.22 228.571 242.26L228.331 243.22L228.091 244.12L227.611 246.04C227.491 246.48 227.311 246.88 227.071 247.24C226.791 247.68 226.491 248 226.171 248.2C225.971 248.32 225.771 248.44 225.571 248.56C225.411 248.64 225.231 248.72 225.031 248.8C224.671 248.96 224.231 249.04 223.711 249.04C223.151 249.04 222.551 248.9 221.911 248.62C221.311 248.3 220.851 247.92 220.531 247.48C220.131 246.96 219.871 246.4 219.751 245.8C219.631 245.2 219.651 244.58 219.811 243.94L226.471 219.64L228.691 211.48C228.771 211.16 228.891 210.84 229.051 210.52C229.211 210.2 229.391 209.88 229.591 209.56C229.991 209 230.471 208.5 231.031 208.06C231.311 207.82 231.611 207.62 231.931 207.46C232.251 207.3 232.571 207.16 232.891 207.04C233.531 206.8 234.231 206.68 234.991 206.68C235.711 206.68 236.431 206.8 237.151 207.04C237.871 207.32 238.471 207.66 238.951 208.06C239.591 208.5 240.071 209 240.391 209.56C240.791 210.16 241.091 210.8 241.291 211.48L245.731 227.68L247.951 235.72L250.171 243.82ZM238.411 234.04C238.531 234.04 238.611 234.02 238.651 233.98L238.831 233.8C238.911 233.72 238.951 233.64 238.951 233.56C239.031 233.48 239.031 233.38 238.951 233.26L237.271 226.66L236.491 223.36L235.651 220C235.571 219.84 235.491 219.74 235.411 219.7C235.251 219.62 235.131 219.58 235.051 219.58C234.971 219.58 234.851 219.62 234.691 219.7C234.611 219.74 234.531 219.84 234.451 220L233.611 223.36L231.811 229.96L230.971 233.26C230.891 233.38 230.891 233.48 230.971 233.56C230.971 233.6 230.971 233.64 230.971 233.68C231.011 233.72 231.031 233.76 231.031 233.8C231.071 233.84 231.111 233.88 231.151 233.92C231.191 233.92 231.231 233.94 231.271 233.98C231.311 234.02 231.391 234.04 231.511 234.04H238.411ZM243.871 196C244.511 196 245.071 196.28 245.551 196.84C246.031 197.32 246.231 197.92 246.151 198.64L246.091 199.48C246.051 199.64 246.031 199.8 246.031 199.96C245.831 200.68 245.591 201.3 245.311 201.82C245.151 202.1 244.991 202.36 244.831 202.6C244.671 202.84 244.491 203.06 244.291 203.26C243.611 203.94 242.911 204.42 242.191 204.7C241.391 205.02 240.531 205.14 239.611 205.06C239.371 205.06 239.131 205.06 238.891 205.06C238.651 205.02 238.431 204.98 238.231 204.94L236.971 204.58C236.771 204.42 236.551 204.32 236.311 204.28C236.231 204.2 236.131 204.14 236.011 204.1C235.891 204.02 235.771 203.94 235.651 203.86L234.331 203.2L233.671 202.9C233.551 202.82 233.431 202.76 233.311 202.72C233.191 202.68 233.091 202.62 233.011 202.54C232.891 202.5 232.771 202.46 232.651 202.42C232.571 202.38 232.471 202.34 232.351 202.3C232.111 202.22 231.931 202.18 231.811 202.18C231.731 202.14 231.591 202.12 231.391 202.12C230.991 202.08 230.631 202.22 230.311 202.54C230.071 202.74 229.911 203.16 229.831 203.8C229.831 204.36 229.571 204.84 229.051 205.24C228.571 205.6 228.011 205.78 227.371 205.78C226.691 205.7 226.131 205.42 225.691 204.94C225.251 204.42 225.051 203.82 225.091 203.14L225.211 202.3C225.211 202.02 225.231 201.86 225.271 201.82C225.391 201.18 225.611 200.56 225.931 199.96C226.251 199.32 226.591 198.84 226.951 198.52C227.591 197.88 228.311 197.4 229.111 197.08C229.871 196.8 230.711 196.68 231.631 196.72C231.871 196.72 232.111 196.74 232.351 196.78C232.591 196.78 232.811 196.8 233.011 196.84C233.251 196.92 233.471 196.98 233.671 197.02C233.871 197.06 234.071 197.12 234.271 197.2C234.351 197.28 234.451 197.34 234.571 197.38C234.691 197.38 234.811 197.42 234.931 197.5C235.051 197.58 235.151 197.64 235.231 197.68C235.351 197.72 235.491 197.78 235.651 197.86L236.071 198.1L236.611 198.4L237.571 198.88C237.891 199.04 238.111 199.16 238.231 199.24C238.351 199.28 238.471 199.32 238.591 199.36C238.711 199.4 238.811 199.44 238.891 199.48C239.131 199.56 239.311 199.6 239.431 199.6C239.511 199.64 239.651 199.66 239.851 199.66C240.331 199.66 240.691 199.52 240.931 199.24C241.251 199 241.411 198.58 241.411 197.98C241.411 197.66 241.491 197.4 241.651 197.2C241.811 196.96 241.991 196.74 242.191 196.54C242.671 196.18 243.231 196 243.871 196Z" fill="white"/>
<path d="M280.476 212.44C281.036 213.56 281.456 214.68 281.736 215.8C281.856 216.36 281.956 216.96 282.036 217.6C282.116 218.2 282.156 218.84 282.156 219.52V236.2C282.156 236.88 282.116 237.54 282.036 238.18C281.956 238.78 281.856 239.38 281.736 239.98C281.416 241.18 280.996 242.28 280.476 243.28C279.916 244.32 279.236 245.24 278.436 246.04C277.596 246.88 276.676 247.58 275.676 248.14C275.156 248.42 274.616 248.68 274.056 248.92C273.496 249.12 272.916 249.28 272.316 249.4C271.676 249.56 271.016 249.68 270.336 249.76C269.696 249.84 269.016 249.88 268.296 249.88C267.016 249.88 265.696 249.72 264.336 249.4C263.736 249.28 263.156 249.12 262.596 248.92C262.036 248.68 261.476 248.42 260.916 248.14C260.396 247.82 259.916 247.5 259.476 247.18C259.036 246.82 258.596 246.44 258.156 246.04C257.356 245.16 256.696 244.24 256.176 243.28C255.856 242.76 255.596 242.22 255.396 241.66C255.236 241.1 255.076 240.54 254.916 239.98C254.636 238.86 254.496 237.6 254.496 236.2V219.52C254.496 218.12 254.636 216.88 254.916 215.8C255.076 215.2 255.236 214.64 255.396 214.12C255.596 213.56 255.856 213 256.176 212.44C256.696 211.48 257.356 210.56 258.156 209.68C258.596 209.28 259.036 208.92 259.476 208.6C259.916 208.24 260.396 207.92 260.916 207.64C261.916 207.08 263.056 206.64 264.336 206.32C265.696 206 267.016 205.84 268.296 205.84C269.016 205.84 269.696 205.88 270.336 205.96C271.016 206.04 271.676 206.16 272.316 206.32C273.596 206.64 274.716 207.08 275.676 207.64C276.236 207.92 276.736 208.24 277.176 208.6C277.616 208.92 278.036 209.28 278.436 209.68C279.236 210.52 279.916 211.44 280.476 212.44ZM263.196 219.88V235.84C263.196 236.8 263.316 237.64 263.556 238.36C263.636 238.76 263.756 239.12 263.916 239.44C264.116 239.72 264.316 240.02 264.516 240.34C264.956 240.9 265.476 241.3 266.076 241.54C266.676 241.82 267.416 241.96 268.296 241.96C269.216 241.96 269.976 241.82 270.576 241.54C271.176 241.3 271.696 240.9 272.136 240.34C272.336 240.02 272.516 239.72 272.676 239.44C272.876 239.12 273.016 238.76 273.096 238.36C273.336 237.64 273.456 236.8 273.456 235.84V219.88C273.456 219 273.336 218.16 273.096 217.36C272.936 216.72 272.616 216.06 272.136 215.38C271.696 214.82 271.176 214.42 270.576 214.18C269.976 213.9 269.216 213.76 268.296 213.76C267.416 213.76 266.676 213.9 266.076 214.18C265.476 214.42 264.956 214.82 264.516 215.38C264.036 216.06 263.716 216.72 263.556 217.36C263.316 218.16 263.196 219 263.196 219.88Z" fill="white"/>
<path d="M141 263.969C141 253.613 149.395 245.219 159.75 245.219H339.281C349.637 245.219 358.031 253.613 358.031 263.969V285.062C358.031 295.418 349.637 303.812 339.281 303.812H159.75C149.395 303.812 141 295.418 141 285.062V263.969Z" fill="white"/>
<path d="M179.455 275.699C180.895 277.339 181.775 279.279 182.095 281.519C182.295 282.639 182.335 283.739 182.215 284.819C182.095 285.899 181.875 286.959 181.555 287.999C180.915 290.079 179.775 291.839 178.135 293.279C176.575 294.719 174.715 295.719 172.555 296.279C170.235 296.839 167.955 296.919 165.715 296.519C163.395 296.159 161.295 295.279 159.415 293.879C158.615 293.319 157.875 292.599 157.195 291.719C156.555 290.879 156.035 290.039 155.635 289.199C155.315 288.519 155.195 287.839 155.275 287.159C155.355 286.439 155.575 285.799 155.935 285.239C156.295 284.679 156.775 284.219 157.375 283.859C158.015 283.499 158.715 283.319 159.475 283.319C160.275 283.319 161.015 283.539 161.695 283.979C162.415 284.419 162.915 284.999 163.195 285.719C163.275 285.879 163.355 286.039 163.435 286.199C163.555 286.319 163.675 286.459 163.795 286.619C163.875 286.819 163.975 286.999 164.095 287.159C164.255 287.279 164.415 287.419 164.575 287.579C165.215 288.139 165.935 288.539 166.735 288.779C167.575 289.019 168.415 289.099 169.255 289.019C170.095 288.939 170.875 288.679 171.595 288.239C172.315 287.799 172.875 287.179 173.275 286.379C173.755 285.379 173.935 284.479 173.815 283.679C173.735 282.879 173.455 282.139 172.975 281.459C172.495 280.779 171.855 280.219 171.055 279.779C170.295 279.299 169.495 278.919 168.655 278.639C167.295 278.159 165.915 277.659 164.515 277.139C163.115 276.619 161.815 275.979 160.615 275.219C159.375 274.419 158.295 273.499 157.375 272.459C156.495 271.379 155.855 270.039 155.455 268.439C154.975 266.359 154.935 264.399 155.335 262.559C155.775 260.679 156.575 259.019 157.735 257.579C158.895 256.179 160.335 255.059 162.055 254.219C163.775 253.339 165.675 252.859 167.755 252.779C170.315 252.659 172.675 253.119 174.835 254.159C175.875 254.639 176.835 255.239 177.715 255.959C178.595 256.679 179.335 257.519 179.935 258.479C180.375 259.199 180.595 259.939 180.595 260.699C180.595 261.459 180.435 262.159 180.115 262.799C179.755 263.439 179.255 263.979 178.615 264.419C177.975 264.819 177.235 265.019 176.395 265.019H176.335C175.615 265.019 174.915 264.819 174.235 264.419C173.595 264.019 173.075 263.519 172.675 262.919C172.475 262.559 172.255 262.239 172.015 261.959C171.855 261.799 171.695 261.659 171.535 261.539C171.375 261.379 171.195 261.219 170.995 261.059C170.155 260.499 169.255 260.259 168.295 260.339C167.335 260.379 166.455 260.639 165.655 261.119C164.895 261.599 164.295 262.259 163.855 263.099C163.455 263.939 163.395 264.879 163.675 265.919C163.875 266.719 164.235 267.379 164.755 267.899C165.275 268.379 165.875 268.799 166.555 269.159C167.235 269.519 167.955 269.819 168.715 270.059C169.475 270.299 170.195 270.539 170.875 270.779C171.675 271.059 172.455 271.359 173.215 271.679C174.015 271.959 174.775 272.299 175.495 272.699C176.215 273.099 176.915 273.539 177.595 274.019C178.275 274.499 178.895 275.059 179.455 275.699Z" fill="#171717"/>
<path d="M216.981 290.699C217.141 291.339 217.161 291.979 217.041 292.619C216.921 293.219 216.661 293.779 216.261 294.299C215.861 294.819 215.381 295.219 214.821 295.499C214.461 295.659 214.081 295.759 213.681 295.799C213.441 295.839 213.201 295.879 212.961 295.919C212.441 295.919 212.001 295.839 211.641 295.679C211.241 295.599 210.841 295.379 210.441 295.019C210.121 294.819 209.821 294.499 209.541 294.059C209.421 293.859 209.301 293.659 209.181 293.459C209.101 293.259 209.041 293.039 209.001 292.799L208.521 290.999L208.281 290.039L208.041 289.139C208.041 289.099 208.021 289.079 207.981 289.079C207.981 289.039 207.981 288.999 207.981 288.959L207.861 288.839C207.781 288.759 207.721 288.719 207.681 288.719C207.641 288.719 207.601 288.719 207.561 288.719C207.561 288.679 207.521 288.659 207.441 288.659H195.981C195.941 288.659 195.901 288.679 195.861 288.719C195.861 288.719 195.841 288.719 195.801 288.719C195.761 288.719 195.701 288.759 195.621 288.839C195.541 288.839 195.501 288.879 195.501 288.959C195.461 288.999 195.441 289.039 195.441 289.079C195.441 289.079 195.421 289.099 195.381 289.139L195.141 290.099L194.901 290.999L194.421 292.919C194.301 293.359 194.121 293.759 193.881 294.119C193.601 294.559 193.301 294.879 192.981 295.079C192.781 295.199 192.581 295.319 192.381 295.439C192.221 295.519 192.041 295.599 191.841 295.679C191.481 295.839 191.041 295.919 190.521 295.919C189.961 295.919 189.361 295.779 188.721 295.499C188.121 295.179 187.661 294.799 187.341 294.359C186.941 293.839 186.681 293.279 186.561 292.679C186.441 292.079 186.461 291.459 186.621 290.819L193.281 266.519L195.501 258.359C195.581 258.039 195.701 257.719 195.861 257.399C196.021 257.079 196.201 256.759 196.401 256.439C196.801 255.879 197.281 255.379 197.841 254.939C198.121 254.699 198.421 254.499 198.741 254.339C199.061 254.179 199.381 254.039 199.701 253.919C200.341 253.679 201.041 253.559 201.801 253.559C202.521 253.559 203.241 253.679 203.961 253.919C204.681 254.199 205.281 254.539 205.761 254.939C206.401 255.379 206.881 255.879 207.201 256.439C207.601 257.039 207.901 257.679 208.101 258.359L212.541 274.559L214.761 282.599L216.981 290.699ZM205.221 280.919C205.341 280.919 205.421 280.899 205.461 280.859L205.641 280.679C205.721 280.599 205.761 280.519 205.761 280.439C205.841 280.359 205.841 280.259 205.761 280.139L204.081 273.539L203.301 270.239L202.461 266.879C202.381 266.719 202.301 266.619 202.221 266.579C202.061 266.499 201.941 266.459 201.861 266.459C201.781 266.459 201.661 266.499 201.501 266.579C201.421 266.619 201.341 266.719 201.261 266.879L200.421 270.239L198.621 276.839L197.781 280.139C197.701 280.259 197.701 280.359 197.781 280.439C197.781 280.479 197.781 280.519 197.781 280.559C197.821 280.599 197.841 280.639 197.841 280.679C197.881 280.719 197.921 280.759 197.961 280.799C198.001 280.799 198.041 280.819 198.081 280.859C198.121 280.899 198.201 280.919 198.321 280.919H205.221Z" fill="#171717"/>
<path d="M241.876 257.639C241.876 257.079 241.976 256.559 242.176 256.079C242.416 255.559 242.716 255.119 243.076 254.759C243.876 253.959 244.836 253.559 245.956 253.559C246.516 253.559 247.036 253.679 247.516 253.919C247.996 254.119 248.436 254.399 248.836 254.759C249.596 255.519 249.976 256.479 249.976 257.639V290.999C249.976 292.359 249.496 293.519 248.536 294.479C247.656 295.439 246.496 295.919 245.056 295.919C244.176 295.919 243.316 295.659 242.476 295.139C241.676 294.659 241.076 293.999 240.676 293.159L230.476 272.279C230.356 272.119 230.216 272.059 230.056 272.099C229.856 272.099 229.756 272.199 229.756 272.399V291.899C229.756 293.019 229.376 293.959 228.616 294.719C228.256 295.079 227.816 295.379 227.296 295.619C226.816 295.819 226.296 295.919 225.736 295.919C224.656 295.919 223.716 295.519 222.916 294.719C222.116 293.919 221.716 292.979 221.716 291.899V258.539C221.716 257.139 222.196 255.959 223.156 254.999C224.116 254.039 225.296 253.559 226.696 253.559C227.616 253.559 228.496 253.819 229.336 254.339C230.096 254.819 230.696 255.499 231.136 256.379L241.216 277.139C241.256 277.259 241.376 277.319 241.576 277.319C241.776 277.239 241.876 277.119 241.876 276.959V257.639Z" fill="#171717"/>
<path d="M254.177 257.459C254.177 256.379 254.557 255.459 255.317 254.699C256.077 253.939 256.997 253.559 258.077 253.559H277.517C278.597 253.559 279.517 253.939 280.277 254.699C281.037 255.459 281.417 256.379 281.417 257.459C281.417 258.539 281.037 259.459 280.277 260.219C279.517 260.979 278.597 261.359 277.517 261.359H272.777C272.617 261.359 272.477 261.419 272.357 261.539C272.237 261.619 272.177 261.759 272.177 261.959V292.019C272.177 293.099 271.797 294.019 271.037 294.779C270.277 295.539 269.357 295.919 268.277 295.919H267.377C266.297 295.919 265.377 295.539 264.617 294.779C263.857 294.019 263.477 293.099 263.477 292.019V261.959C263.477 261.759 263.417 261.619 263.297 261.539C263.177 261.419 263.037 261.359 262.877 261.359H258.077C256.997 261.359 256.077 260.979 255.317 260.219C254.557 259.459 254.177 258.539 254.177 257.459Z" fill="#171717"/>
<path d="M310.978 259.319C311.538 260.439 311.958 261.559 312.238 262.679C312.358 263.239 312.458 263.839 312.538 264.479C312.618 265.079 312.658 265.719 312.658 266.399V283.079C312.658 283.759 312.618 284.419 312.538 285.059C312.458 285.659 312.358 286.259 312.238 286.859C311.918 288.059 311.498 289.159 310.978 290.159C310.418 291.199 309.738 292.119 308.938 292.919C308.098 293.759 307.178 294.459 306.178 295.019C305.658 295.299 305.118 295.559 304.558 295.799C303.998 295.999 303.418 296.159 302.818 296.279C302.178 296.439 301.518 296.559 300.838 296.639C300.198 296.719 299.518 296.759 298.798 296.759C297.518 296.759 296.198 296.599 294.838 296.279C294.238 296.159 293.658 295.999 293.098 295.799C292.538 295.559 291.978 295.299 291.418 295.019C290.898 294.699 290.418 294.379 289.978 294.059C289.538 293.699 289.098 293.319 288.658 292.919C287.858 292.039 287.198 291.119 286.678 290.159C286.358 289.639 286.098 289.099 285.898 288.539C285.738 287.979 285.578 287.419 285.418 286.859C285.138 285.739 284.998 284.479 284.998 283.079V266.399C284.998 264.999 285.138 263.759 285.418 262.679C285.578 262.079 285.738 261.519 285.898 260.999C286.098 260.439 286.358 259.879 286.678 259.319C287.198 258.359 287.858 257.439 288.658 256.559C289.098 256.159 289.538 255.799 289.978 255.479C290.418 255.119 290.898 254.799 291.418 254.519C292.418 253.959 293.558 253.519 294.838 253.199C296.198 252.879 297.518 252.719 298.798 252.719C299.518 252.719 300.198 252.759 300.838 252.839C301.518 252.919 302.178 253.039 302.818 253.199C304.098 253.519 305.218 253.959 306.178 254.519C306.738 254.799 307.238 255.119 307.678 255.479C308.118 255.799 308.538 256.159 308.938 256.559C309.738 257.399 310.418 258.319 310.978 259.319ZM293.698 266.759V282.719C293.698 283.679 293.818 284.519 294.058 285.239C294.138 285.639 294.258 285.999 294.418 286.319C294.618 286.599 294.818 286.899 295.018 287.219C295.458 287.779 295.978 288.179 296.578 288.419C297.178 288.699 297.918 288.839 298.798 288.839C299.718 288.839 300.478 288.699 301.078 288.419C301.678 288.179 302.198 287.779 302.638 287.219C302.838 286.899 303.018 286.599 303.178 286.319C303.378 285.999 303.518 285.639 303.598 285.239C303.838 284.519 303.958 283.679 303.958 282.719V266.759C303.958 265.879 303.838 265.039 303.598 264.239C303.438 263.599 303.118 262.939 302.638 262.259C302.198 261.699 301.678 261.299 301.078 261.059C300.478 260.779 299.718 260.639 298.798 260.639C297.918 260.639 297.178 260.779 296.578 261.059C295.978 261.299 295.458 261.699 295.018 262.259C294.538 262.939 294.218 263.599 294.058 264.239C293.818 265.039 293.698 265.879 293.698 266.759Z" fill="#171717"/>
<path d="M341.233 275.699C342.673 277.339 343.553 279.279 343.873 281.519C344.073 282.639 344.113 283.739 343.993 284.819C343.873 285.899 343.653 286.959 343.333 287.999C342.693 290.079 341.553 291.839 339.913 293.279C338.353 294.719 336.493 295.719 334.333 296.279C332.013 296.839 329.733 296.919 327.493 296.519C325.173 296.159 323.073 295.279 321.193 293.879C320.393 293.319 319.653 292.599 318.973 291.719C318.333 290.879 317.813 290.039 317.413 289.199C317.093 288.519 316.973 287.839 317.053 287.159C317.133 286.439 317.353 285.799 317.713 285.239C318.073 284.679 318.553 284.219 319.153 283.859C319.793 283.499 320.493 283.319 321.253 283.319C322.053 283.319 322.793 283.539 323.473 283.979C324.193 284.419 324.693 284.999 324.973 285.719C325.053 285.879 325.133 286.039 325.213 286.199C325.333 286.319 325.453 286.459 325.573 286.619C325.653 286.819 325.753 286.999 325.873 287.159C326.033 287.279 326.193 287.419 326.353 287.579C326.993 288.139 327.713 288.539 328.513 288.779C329.353 289.019 330.193 289.099 331.033 289.019C331.873 288.939 332.653 288.679 333.373 288.239C334.093 287.799 334.653 287.179 335.053 286.379C335.533 285.379 335.713 284.479 335.593 283.679C335.513 282.879 335.233 282.139 334.753 281.459C334.273 280.779 333.633 280.219 332.833 279.779C332.073 279.299 331.273 278.919 330.433 278.639C329.073 278.159 327.693 277.659 326.293 277.139C324.893 276.619 323.593 275.979 322.393 275.219C321.153 274.419 320.073 273.499 319.153 272.459C318.273 271.379 317.633 270.039 317.233 268.439C316.753 266.359 316.713 264.399 317.113 262.559C317.553 260.679 318.353 259.019 319.513 257.579C320.673 256.179 322.113 255.059 323.833 254.219C325.553 253.339 327.453 252.859 329.533 252.779C332.093 252.659 334.453 253.119 336.613 254.159C337.653 254.639 338.613 255.239 339.493 255.959C340.373 256.679 341.113 257.519 341.713 258.479C342.153 259.199 342.373 259.939 342.373 260.699C342.373 261.459 342.213 262.159 341.893 262.799C341.533 263.439 341.033 263.979 340.393 264.419C339.753 264.819 339.013 265.019 338.173 265.019H338.113C337.393 265.019 336.693 264.819 336.013 264.419C335.373 264.019 334.853 263.519 334.453 262.919C334.253 262.559 334.033 262.239 333.793 261.959C333.633 261.799 333.473 261.659 333.313 261.539C333.153 261.379 332.973 261.219 332.773 261.059C331.933 260.499 331.033 260.259 330.073 260.339C329.113 260.379 328.233 260.639 327.433 261.119C326.673 261.599 326.073 262.259 325.633 263.099C325.233 263.939 325.173 264.879 325.453 265.919C325.653 266.719 326.013 267.379 326.533 267.899C327.053 268.379 327.653 268.799 328.333 269.159C329.013 269.519 329.733 269.819 330.493 270.059C331.253 270.299 331.973 270.539 332.653 270.779C333.453 271.059 334.233 271.359 334.993 271.679C335.793 271.959 336.553 272.299 337.273 272.699C337.993 273.099 338.693 273.539 339.373 274.019C340.053 274.499 340.673 275.059 341.233 275.699Z" fill="#171717"/>
</svg>
