<svg width="116" height="58" viewBox="0 0 116 58" fill="none" xmlns="http://www.w3.org/2000/svg">
<path d="M20.172 5.696C20.748 5.696 21.2387 5.89867 21.644 6.304C22.0493 6.70933 22.252 7.2 22.252 7.776V21.44C22.252 21.8027 22.2307 22.1547 22.188 22.496C22.1453 22.816 22.092 23.136 22.028 23.456C21.8573 24.096 21.6333 24.6827 21.356 25.216C21.0573 25.7707 20.6947 26.2613 20.268 26.688C19.82 27.136 19.3293 27.5093 18.796 27.808C18.5187 27.9573 18.2307 28.096 17.932 28.224C17.6333 28.3307 17.324 28.416 17.004 28.48C16.6627 28.5653 16.3107 28.6293 15.948 28.672C15.6067 28.7147 15.244 28.736 14.86 28.736C14.1773 28.736 13.4733 28.6507 12.748 28.48C12.428 28.416 12.1187 28.3307 11.82 28.224C11.5213 28.096 11.2227 27.9573 10.924 27.808C10.6467 27.6373 10.3907 27.4667 10.156 27.296C9.92133 27.104 9.68667 26.9013 9.452 26.688C9.02533 26.2187 8.67333 25.728 8.396 25.216C8.22533 24.9387 8.08667 24.6507 7.98 24.352C7.89467 24.0533 7.80933 23.7547 7.724 23.456C7.57467 22.8587 7.5 22.1867 7.5 21.44V21.248C7.5 20.608 7.724 20.064 8.172 19.616C8.64133 19.1467 9.196 18.9227 9.836 18.944C10.476 18.944 11.02 19.168 11.468 19.616C11.916 20.1067 12.14 20.6507 12.14 21.248V21.28C12.14 21.7707 12.204 22.208 12.332 22.592C12.3747 22.8053 12.4387 22.9973 12.524 23.168C12.6307 23.3173 12.7373 23.4773 12.844 23.648C13.0787 23.9467 13.356 24.16 13.676 24.288C13.996 24.4373 14.3907 24.512 14.86 24.512C15.3507 24.512 15.756 24.4373 16.076 24.288C16.396 24.16 16.6733 23.9467 16.908 23.648C17.0147 23.4773 17.1107 23.3173 17.196 23.168C17.3027 22.9973 17.3773 22.8053 17.42 22.592C17.548 22.208 17.612 21.76 17.612 21.248V10.176C17.612 10.0907 17.58 10.016 17.516 9.952C17.452 9.888 17.3773 9.856 17.292 9.856H11.308C10.732 9.856 10.2413 9.65333 9.836 9.248C9.452 8.88533 9.23867 8.40533 9.196 7.808C9.196 7.21067 9.39867 6.70933 9.804 6.304C9.996 6.13333 10.2093 5.99467 10.444 5.888C10.7 5.76 10.9773 5.696 11.276 5.696H20.172Z" fill="#171717"/>
<path d="M38.8248 8.768C39.1234 9.36533 39.3474 9.96267 39.4967 10.56C39.5607 10.8587 39.6141 11.1787 39.6567 11.52C39.6994 11.84 39.7207 12.1813 39.7207 12.544V21.44C39.7207 21.8027 39.6994 22.1547 39.6567 22.496C39.6141 22.816 39.5607 23.136 39.4967 23.456C39.3261 24.096 39.1021 24.6827 38.8248 25.216C38.5261 25.7707 38.1634 26.2613 37.7368 26.688C37.2887 27.136 36.7981 27.5093 36.2648 27.808C35.9874 27.9573 35.6994 28.096 35.4007 28.224C35.1021 28.3307 34.7928 28.416 34.4728 28.48C34.1314 28.5653 33.7794 28.6293 33.4167 28.672C33.0754 28.7147 32.7127 28.736 32.3288 28.736C31.6461 28.736 30.9421 28.6507 30.2168 28.48C29.8968 28.416 29.5874 28.3307 29.2887 28.224C28.9901 28.096 28.6914 27.9573 28.3927 27.808C28.1154 27.6373 27.8594 27.4667 27.6248 27.296C27.3901 27.104 27.1554 26.9013 26.9207 26.688C26.4941 26.2187 26.1421 25.728 25.8647 25.216C25.6941 24.9387 25.5554 24.6507 25.4487 24.352C25.3634 24.0533 25.2781 23.7547 25.1928 23.456C25.0434 22.8587 24.9688 22.1867 24.9688 21.44V12.544C24.9688 11.7973 25.0434 11.136 25.1928 10.56C25.2781 10.24 25.3634 9.94133 25.4487 9.664C25.5554 9.36533 25.6941 9.06667 25.8647 8.768C26.1421 8.256 26.4941 7.76534 26.9207 7.296C27.1554 7.08267 27.3901 6.89067 27.6248 6.72C27.8594 6.528 28.1154 6.35733 28.3927 6.208C28.9261 5.90933 29.5341 5.67467 30.2168 5.504C30.9421 5.33333 31.6461 5.248 32.3288 5.248C32.7127 5.248 33.0754 5.26933 33.4167 5.312C33.7794 5.35467 34.1314 5.41867 34.4728 5.504C35.1554 5.67467 35.7528 5.90933 36.2648 6.208C36.5634 6.35733 36.8301 6.528 37.0648 6.72C37.2994 6.89067 37.5234 7.08267 37.7368 7.296C38.1634 7.744 38.5261 8.23467 38.8248 8.768ZM29.6087 12.736V21.248C29.6087 21.76 29.6728 22.208 29.8008 22.592C29.8434 22.8053 29.9074 22.9973 29.9928 23.168C30.0994 23.3173 30.2061 23.4773 30.3127 23.648C30.5474 23.9467 30.8248 24.16 31.1448 24.288C31.4648 24.4373 31.8594 24.512 32.3288 24.512C32.8194 24.512 33.2248 24.4373 33.5448 24.288C33.8647 24.16 34.1421 23.9467 34.3768 23.648C34.4834 23.4773 34.5794 23.3173 34.6647 23.168C34.7714 22.9973 34.8461 22.8053 34.8887 22.592C35.0167 22.208 35.0807 21.76 35.0807 21.248V12.736C35.0807 12.2667 35.0167 11.8187 34.8887 11.392C34.8034 11.0507 34.6328 10.6987 34.3768 10.336C34.1421 10.0373 33.8647 9.824 33.5448 9.696C33.2248 9.54667 32.8194 9.472 32.3288 9.472C31.8594 9.472 31.4648 9.54667 31.1448 9.696C30.8248 9.824 30.5474 10.0373 30.3127 10.336C30.0567 10.6987 29.8861 11.0507 29.8008 11.392C29.6728 11.8187 29.6087 12.2667 29.6087 12.736Z" fill="#171717"/>
<path d="M58.2248 25.504C58.3101 25.8453 58.3208 26.1867 58.2568 26.528C58.1928 26.848 58.0541 27.1467 57.8408 27.424C57.6274 27.7013 57.3714 27.9147 57.0728 28.064C56.8807 28.1493 56.6781 28.2027 56.4648 28.224C56.3368 28.2453 56.2087 28.2667 56.0807 28.288C55.8034 28.288 55.5688 28.2453 55.3768 28.16C55.1634 28.1173 54.9501 28 54.7368 27.808C54.5661 27.7013 54.4061 27.5307 54.2568 27.296C54.1928 27.1893 54.1287 27.0827 54.0648 26.976C54.0221 26.8693 53.9901 26.752 53.9688 26.624L53.7127 25.664L53.5848 25.152L53.4567 24.672C53.4567 24.6507 53.4461 24.64 53.4248 24.64C53.4248 24.6187 53.4248 24.5973 53.4248 24.576L53.3607 24.512C53.3181 24.4693 53.2861 24.448 53.2648 24.448C53.2434 24.448 53.2221 24.448 53.2008 24.448C53.2008 24.4267 53.1794 24.416 53.1367 24.416H47.0247C47.0034 24.416 46.9821 24.4267 46.9608 24.448C46.9608 24.448 46.9501 24.448 46.9287 24.448C46.9074 24.448 46.8754 24.4693 46.8327 24.512C46.7901 24.512 46.7687 24.5333 46.7687 24.576C46.7474 24.5973 46.7368 24.6187 46.7368 24.64C46.7368 24.64 46.7261 24.6507 46.7048 24.672L46.5768 25.184L46.4487 25.664L46.1927 26.688C46.1287 26.9227 46.0327 27.136 45.9048 27.328C45.7554 27.5627 45.5954 27.7333 45.4248 27.84C45.3181 27.904 45.2114 27.968 45.1048 28.032C45.0194 28.0747 44.9234 28.1173 44.8167 28.16C44.6247 28.2453 44.3901 28.288 44.1128 28.288C43.8141 28.288 43.4941 28.2133 43.1527 28.064C42.8327 27.8933 42.5874 27.6907 42.4168 27.456C42.2034 27.1787 42.0648 26.88 42.0008 26.56C41.9368 26.24 41.9474 25.9093 42.0327 25.568L45.5848 12.608L46.7687 8.256C46.8114 8.08533 46.8754 7.91467 46.9608 7.744C47.0461 7.57333 47.1421 7.40267 47.2487 7.232C47.4621 6.93333 47.7181 6.66667 48.0168 6.432C48.1661 6.304 48.3261 6.19733 48.4967 6.112C48.6674 6.02667 48.8381 5.952 49.0088 5.888C49.3501 5.76 49.7234 5.696 50.1287 5.696C50.5127 5.696 50.8968 5.76 51.2808 5.888C51.6647 6.03733 51.9847 6.21867 52.2407 6.432C52.5821 6.66667 52.8381 6.93333 53.0088 7.232C53.2221 7.552 53.3821 7.89333 53.4888 8.256L55.8568 16.896L57.0407 21.184L58.2248 25.504ZM51.9528 20.288C52.0168 20.288 52.0594 20.2773 52.0807 20.256L52.1768 20.16C52.2194 20.1173 52.2407 20.0747 52.2407 20.032C52.2834 19.9893 52.2834 19.936 52.2407 19.872L51.3447 16.352L50.9287 14.592L50.4808 12.8C50.4381 12.7147 50.3954 12.6613 50.3528 12.64C50.2674 12.5973 50.2034 12.576 50.1608 12.576C50.1181 12.576 50.0541 12.5973 49.9688 12.64C49.9261 12.6613 49.8834 12.7147 49.8408 12.8L49.3927 14.592L48.4328 18.112L47.9847 19.872C47.9421 19.936 47.9421 19.9893 47.9847 20.032C47.9847 20.0533 47.9847 20.0747 47.9847 20.096C48.0061 20.1173 48.0168 20.1387 48.0168 20.16C48.0381 20.1813 48.0594 20.2027 48.0807 20.224C48.1021 20.224 48.1234 20.2347 48.1447 20.256C48.1661 20.2773 48.2088 20.288 48.2728 20.288H51.9528ZM54.8647 0C55.2061 0 55.5047 0.149333 55.7607 0.448C56.0168 0.704 56.1234 1.024 56.0807 1.408L56.0488 1.856C56.0274 1.94133 56.0168 2.02667 56.0168 2.112C55.9101 2.496 55.7821 2.82667 55.6328 3.104C55.5474 3.25333 55.4621 3.392 55.3768 3.52C55.2914 3.648 55.1954 3.76534 55.0888 3.872C54.7261 4.23467 54.3527 4.49067 53.9688 4.64C53.5421 4.81067 53.0834 4.87467 52.5928 4.832C52.4648 4.832 52.3368 4.832 52.2088 4.832C52.0807 4.81067 51.9634 4.78933 51.8568 4.768L51.1847 4.576C51.0781 4.49067 50.9607 4.43733 50.8327 4.416C50.7901 4.37333 50.7368 4.34133 50.6728 4.32C50.6088 4.27733 50.5448 4.23467 50.4808 4.192L49.7767 3.84L49.4248 3.68C49.3608 3.63733 49.2967 3.60533 49.2327 3.584C49.1688 3.56267 49.1154 3.53067 49.0728 3.488C49.0088 3.46667 48.9447 3.44533 48.8807 3.424C48.8381 3.40267 48.7847 3.38133 48.7207 3.36C48.5928 3.31733 48.4967 3.296 48.4328 3.296C48.3901 3.27467 48.3154 3.264 48.2088 3.264C47.9954 3.24267 47.8034 3.31733 47.6328 3.488C47.5048 3.59467 47.4194 3.81867 47.3768 4.16C47.3768 4.45867 47.2381 4.71467 46.9608 4.928C46.7048 5.12 46.4061 5.216 46.0648 5.216C45.7021 5.17333 45.4034 5.024 45.1688 4.768C44.9341 4.49067 44.8274 4.17067 44.8488 3.808L44.9128 3.36C44.9128 3.21067 44.9234 3.12533 44.9448 3.104C45.0088 2.76267 45.1261 2.432 45.2967 2.112C45.4674 1.77067 45.6488 1.51467 45.8408 1.344C46.1821 1.00267 46.5661 0.746667 46.9928 0.576C47.3981 0.426668 47.8461 0.362668 48.3368 0.384001C48.4647 0.384001 48.5928 0.394667 48.7207 0.416C48.8487 0.416 48.9661 0.426667 49.0728 0.448C49.2007 0.490667 49.3181 0.522668 49.4248 0.544001C49.5314 0.565334 49.6381 0.597334 49.7448 0.640001C49.7874 0.682667 49.8408 0.714667 49.9048 0.736C49.9688 0.736 50.0327 0.757334 50.0967 0.800001C50.1607 0.842667 50.2141 0.874667 50.2568 0.896C50.3208 0.917334 50.3954 0.949334 50.4808 0.992001L50.7048 1.12L50.9928 1.28L51.5047 1.536C51.6754 1.62133 51.7928 1.68533 51.8568 1.728C51.9207 1.74933 51.9848 1.77067 52.0488 1.792C52.1128 1.81333 52.1661 1.83467 52.2088 1.856C52.3368 1.89867 52.4328 1.92 52.4967 1.92C52.5394 1.94133 52.6141 1.952 52.7207 1.952C52.9767 1.952 53.1688 1.87733 53.2967 1.728C53.4674 1.6 53.5527 1.376 53.5527 1.056C53.5527 0.885335 53.5954 0.746668 53.6808 0.640001C53.7661 0.512 53.8621 0.394667 53.9688 0.288C54.2248 0.096 54.5234 0 54.8647 0Z" fill="#171717"/>
<path d="M74.3873 8.768C74.6859 9.36533 74.9099 9.96267 75.0592 10.56C75.1233 10.8587 75.1766 11.1787 75.2193 11.52C75.2619 11.84 75.2832 12.1813 75.2832 12.544V21.44C75.2832 21.8027 75.2619 22.1547 75.2193 22.496C75.1766 22.816 75.1233 23.136 75.0592 23.456C74.8886 24.096 74.6646 24.6827 74.3873 25.216C74.0886 25.7707 73.7259 26.2613 73.2992 26.688C72.8512 27.136 72.3606 27.5093 71.8272 27.808C71.5499 27.9573 71.2619 28.096 70.9632 28.224C70.6646 28.3307 70.3552 28.416 70.0352 28.48C69.6939 28.5653 69.3419 28.6293 68.9792 28.672C68.6379 28.7147 68.2753 28.736 67.8913 28.736C67.2086 28.736 66.5046 28.6507 65.7793 28.48C65.4593 28.416 65.1499 28.3307 64.8512 28.224C64.5526 28.096 64.2539 27.9573 63.9552 27.808C63.6779 27.6373 63.4219 27.4667 63.1872 27.296C62.9526 27.104 62.7179 26.9013 62.4832 26.688C62.0566 26.2187 61.7046 25.728 61.4272 25.216C61.2566 24.9387 61.1179 24.6507 61.0112 24.352C60.9259 24.0533 60.8406 23.7547 60.7552 23.456C60.6059 22.8587 60.5312 22.1867 60.5312 21.44V12.544C60.5312 11.7973 60.6059 11.136 60.7552 10.56C60.8406 10.24 60.9259 9.94133 61.0112 9.664C61.1179 9.36533 61.2566 9.06667 61.4272 8.768C61.7046 8.256 62.0566 7.76534 62.4832 7.296C62.7179 7.08267 62.9526 6.89067 63.1872 6.72C63.4219 6.528 63.6779 6.35733 63.9552 6.208C64.4886 5.90933 65.0966 5.67467 65.7793 5.504C66.5046 5.33333 67.2086 5.248 67.8913 5.248C68.2753 5.248 68.6379 5.26933 68.9792 5.312C69.3419 5.35467 69.6939 5.41867 70.0352 5.504C70.7179 5.67467 71.3152 5.90933 71.8272 6.208C72.1259 6.35733 72.3926 6.528 72.6273 6.72C72.8619 6.89067 73.0859 7.08267 73.2992 7.296C73.7259 7.744 74.0886 8.23467 74.3873 8.768ZM65.1712 12.736V21.248C65.1712 21.76 65.2353 22.208 65.3633 22.592C65.4059 22.8053 65.4699 22.9973 65.5553 23.168C65.6619 23.3173 65.7686 23.4773 65.8753 23.648C66.1099 23.9467 66.3872 24.16 66.7072 24.288C67.0272 24.4373 67.4219 24.512 67.8913 24.512C68.3819 24.512 68.7873 24.4373 69.1073 24.288C69.4273 24.16 69.7046 23.9467 69.9393 23.648C70.0459 23.4773 70.1419 23.3173 70.2272 23.168C70.3339 22.9973 70.4086 22.8053 70.4512 22.592C70.5792 22.208 70.6432 21.76 70.6432 21.248V12.736C70.6432 12.2667 70.5792 11.8187 70.4512 11.392C70.3659 11.0507 70.1953 10.6987 69.9393 10.336C69.7046 10.0373 69.4273 9.824 69.1073 9.696C68.7873 9.54667 68.3819 9.472 67.8913 9.472C67.4219 9.472 67.0272 9.54667 66.7072 9.696C66.3872 9.824 66.1099 10.0373 65.8753 10.336C65.6193 10.6987 65.4486 11.0507 65.3633 11.392C65.2353 11.8187 65.1712 12.2667 65.1712 12.736Z" fill="#171717"/>
<path d="M0 36.25C0 30.7272 4.47715 26.25 10 26.25H105.75C111.273 26.25 115.75 30.7272 115.75 36.25V47.5C115.75 53.0228 111.273 57.5 105.75 57.5H10C4.47716 57.5 0 53.0228 0 47.5V36.25Z" fill="#171717"/>
<path d="M20.5095 42.506C21.2775 43.3807 21.7468 44.4153 21.9175 45.61C22.0241 46.2073 22.0455 46.794 21.9815 47.37C21.9175 47.946 21.8001 48.5113 21.6295 49.066C21.2881 50.1753 20.6801 51.114 19.8055 51.882C18.9735 52.65 17.9815 53.1833 16.8295 53.482C15.5921 53.7807 14.3761 53.8233 13.1815 53.61C11.9441 53.418 10.8241 52.9487 9.82145 52.202C9.39479 51.9033 9.00012 51.5193 8.63745 51.05C8.29612 50.602 8.01879 50.154 7.80545 49.706C7.63479 49.3433 7.57079 48.9807 7.61345 48.618C7.65612 48.234 7.77345 47.8927 7.96545 47.594C8.15745 47.2953 8.41345 47.05 8.73345 46.858C9.07479 46.666 9.44812 46.57 9.85345 46.57C10.2801 46.57 10.6748 46.6873 11.0375 46.922C11.4215 47.1567 11.6881 47.466 11.8375 47.85C11.8801 47.9353 11.9228 48.0207 11.9655 48.106C12.0295 48.17 12.0935 48.2447 12.1575 48.33C12.2001 48.4367 12.2535 48.5327 12.3175 48.618C12.4028 48.682 12.4881 48.7567 12.5735 48.842C12.9148 49.1407 13.2988 49.354 13.7255 49.482C14.1735 49.61 14.6215 49.6527 15.0695 49.61C15.5175 49.5673 15.9335 49.4287 16.3175 49.194C16.7015 48.9593 17.0001 48.6287 17.2135 48.202C17.4695 47.6687 17.5655 47.1887 17.5015 46.762C17.4588 46.3353 17.3095 45.9407 17.0535 45.578C16.7975 45.2153 16.4561 44.9167 16.0295 44.682C15.6241 44.426 15.1975 44.2233 14.7495 44.074C14.0241 43.818 13.2881 43.5513 12.5415 43.274C11.7948 42.9967 11.1015 42.6553 10.4615 42.25C9.80012 41.8233 9.22412 41.3327 8.73345 40.778C8.26412 40.202 7.92279 39.4873 7.70945 38.634C7.45345 37.5247 7.43212 36.4793 7.64545 35.498C7.88012 34.4953 8.30679 33.61 8.92545 32.842C9.54412 32.0953 10.3121 31.498 11.2295 31.05C12.1468 30.5807 13.1601 30.3247 14.2695 30.282C15.6348 30.218 16.8935 30.4633 18.0455 31.018C18.6001 31.274 19.1121 31.594 19.5815 31.978C20.0508 32.362 20.4455 32.81 20.7655 33.322C21.0001 33.706 21.1175 34.1007 21.1175 34.506C21.1175 34.9113 21.0321 35.2847 20.8615 35.626C20.6695 35.9673 20.4028 36.2553 20.0615 36.49C19.7201 36.7033 19.3255 36.81 18.8775 36.81H18.8455C18.4615 36.81 18.0881 36.7033 17.7255 36.49C17.3841 36.2767 17.1068 36.01 16.8935 35.69C16.7868 35.498 16.6695 35.3273 16.5415 35.178C16.4561 35.0927 16.3708 35.018 16.2855 34.954C16.2001 34.8687 16.1041 34.7833 15.9975 34.698C15.5495 34.3993 15.0695 34.2713 14.5575 34.314C14.0455 34.3353 13.5761 34.474 13.1495 34.73C12.7441 34.986 12.4241 35.338 12.1895 35.786C11.9761 36.234 11.9441 36.7353 12.0935 37.29C12.2001 37.7167 12.3921 38.0687 12.6695 38.346C12.9468 38.602 13.2668 38.826 13.6295 39.018C13.9921 39.21 14.3761 39.37 14.7815 39.498C15.1868 39.626 15.5708 39.754 15.9335 39.882C16.3601 40.0313 16.7761 40.1913 17.1815 40.362C17.6081 40.5113 18.0135 40.6927 18.3975 40.906C18.7815 41.1193 19.1548 41.354 19.5175 41.61C19.8801 41.866 20.2108 42.1647 20.5095 42.506Z" fill="white"/>
<path d="M40.5235 50.506C40.6088 50.8473 40.6195 51.1887 40.5555 51.53C40.4915 51.85 40.3528 52.1487 40.1395 52.426C39.9261 52.7033 39.6701 52.9167 39.3715 53.066C39.1795 53.1513 38.9768 53.2047 38.7635 53.226C38.6355 53.2473 38.5075 53.2687 38.3795 53.29C38.1021 53.29 37.8675 53.2473 37.6755 53.162C37.4621 53.1193 37.2488 53.002 37.0355 52.81C36.8648 52.7033 36.7048 52.5327 36.5555 52.298C36.4915 52.1913 36.4275 52.0847 36.3635 51.978C36.3208 51.8713 36.2888 51.754 36.2675 51.626L36.0115 50.666L35.8835 50.154L35.7555 49.674C35.7555 49.6527 35.7448 49.642 35.7235 49.642C35.7235 49.6207 35.7235 49.5993 35.7235 49.578L35.6595 49.514C35.6168 49.4713 35.5848 49.45 35.5635 49.45C35.5421 49.45 35.5208 49.45 35.4995 49.45C35.4995 49.4287 35.4781 49.418 35.4355 49.418H29.3235C29.3021 49.418 29.2808 49.4287 29.2595 49.45C29.2595 49.45 29.2488 49.45 29.2275 49.45C29.2061 49.45 29.1741 49.4713 29.1315 49.514C29.0888 49.514 29.0675 49.5353 29.0675 49.578C29.0461 49.5993 29.0355 49.6207 29.0355 49.642C29.0355 49.642 29.0248 49.6527 29.0035 49.674L28.8755 50.186L28.7475 50.666L28.4915 51.69C28.4275 51.9247 28.3315 52.138 28.2035 52.33C28.0541 52.5647 27.8941 52.7353 27.7235 52.842C27.6168 52.906 27.5101 52.97 27.4035 53.034C27.3181 53.0767 27.2221 53.1193 27.1155 53.162C26.9235 53.2473 26.6888 53.29 26.4115 53.29C26.1128 53.29 25.7928 53.2153 25.4515 53.066C25.1315 52.8953 24.8861 52.6927 24.7155 52.458C24.5021 52.1807 24.3635 51.882 24.2995 51.562C24.2355 51.242 24.2461 50.9113 24.3315 50.57L27.8835 37.61L29.0675 33.258C29.1101 33.0873 29.1741 32.9167 29.2595 32.746C29.3448 32.5753 29.4408 32.4047 29.5475 32.234C29.7608 31.9353 30.0168 31.6687 30.3155 31.434C30.4648 31.306 30.6248 31.1993 30.7955 31.114C30.9661 31.0287 31.1368 30.954 31.3075 30.89C31.6488 30.762 32.0221 30.698 32.4275 30.698C32.8115 30.698 33.1955 30.762 33.5795 30.89C33.9635 31.0393 34.2835 31.2207 34.5395 31.434C34.8808 31.6687 35.1368 31.9353 35.3075 32.234C35.5208 32.554 35.6808 32.8953 35.7875 33.258L38.1555 41.898L39.3395 46.186L40.5235 50.506ZM34.2515 45.29C34.3155 45.29 34.3581 45.2793 34.3795 45.258L34.4755 45.162C34.5181 45.1193 34.5395 45.0767 34.5395 45.034C34.5821 44.9913 34.5821 44.938 34.5395 44.874L33.6435 41.354L33.2275 39.594L32.7795 37.802C32.7368 37.7167 32.6941 37.6633 32.6515 37.642C32.5661 37.5993 32.5021 37.578 32.4595 37.578C32.4168 37.578 32.3528 37.5993 32.2675 37.642C32.2248 37.6633 32.1821 37.7167 32.1395 37.802L31.6915 39.594L30.7315 43.114L30.2835 44.874C30.2408 44.938 30.2408 44.9913 30.2835 45.034C30.2835 45.0553 30.2835 45.0767 30.2835 45.098C30.3048 45.1193 30.3155 45.1407 30.3155 45.162C30.3368 45.1833 30.3581 45.2047 30.3795 45.226C30.4008 45.226 30.4221 45.2367 30.4435 45.258C30.4648 45.2793 30.5075 45.29 30.5715 45.29H34.2515Z" fill="white"/>
<path d="M53.8007 32.874C53.8007 32.5753 53.854 32.298 53.9607 32.042C54.0887 31.7647 54.2487 31.53 54.4407 31.338C54.8674 30.9113 55.3794 30.698 55.9767 30.698C56.2754 30.698 56.5527 30.762 56.8087 30.89C57.0647 30.9967 57.2994 31.146 57.5127 31.338C57.918 31.7433 58.1207 32.2553 58.1207 32.874V50.666C58.1207 51.3913 57.8647 52.01 57.3527 52.522C56.8834 53.034 56.2647 53.29 55.4967 53.29C55.0274 53.29 54.5687 53.1513 54.1207 52.874C53.694 52.618 53.374 52.266 53.1607 51.818L47.7207 40.682C47.6567 40.5967 47.582 40.5647 47.4967 40.586C47.39 40.586 47.3367 40.6393 47.3367 40.746V51.146C47.3367 51.7433 47.134 52.2447 46.7287 52.65C46.5367 52.842 46.302 53.002 46.0247 53.13C45.7687 53.2367 45.4914 53.29 45.1927 53.29C44.6167 53.29 44.1154 53.0767 43.6887 52.65C43.262 52.2233 43.0487 51.722 43.0487 51.146V33.354C43.0487 32.6073 43.3047 31.978 43.8167 31.466C44.3287 30.954 44.958 30.698 45.7047 30.698C46.1954 30.698 46.6647 30.8367 47.1127 31.114C47.518 31.37 47.838 31.7327 48.0727 32.202L53.4487 43.274C53.47 43.338 53.534 43.37 53.6407 43.37C53.7474 43.3273 53.8007 43.2633 53.8007 43.178V32.874Z" fill="white"/>
<path d="M60.3612 32.778C60.3612 32.202 60.5639 31.7113 60.9692 31.306C61.3745 30.9007 61.8652 30.698 62.4412 30.698H72.8092C73.3852 30.698 73.8759 30.9007 74.2812 31.306C74.6865 31.7113 74.8892 32.202 74.8892 32.778C74.8892 33.354 74.6865 33.8447 74.2812 34.25C73.8759 34.6553 73.3852 34.858 72.8092 34.858H70.2812C70.1959 34.858 70.1212 34.89 70.0572 34.954C69.9932 34.9967 69.9612 35.0713 69.9612 35.178V51.21C69.9612 51.786 69.7585 52.2767 69.3532 52.682C68.9479 53.0873 68.4572 53.29 67.8812 53.29H67.4012C66.8252 53.29 66.3345 53.0873 65.9292 52.682C65.5239 52.2767 65.3212 51.786 65.3212 51.21V35.178C65.3212 35.0713 65.2892 34.9967 65.2252 34.954C65.1612 34.89 65.0865 34.858 65.0012 34.858H62.4412C61.8652 34.858 61.3745 34.6553 60.9692 34.25C60.5639 33.8447 60.3612 33.354 60.3612 32.778Z" fill="white"/>
<path d="M90.6547 33.77C90.9534 34.3673 91.1774 34.9647 91.3267 35.562C91.3907 35.8607 91.444 36.1807 91.4867 36.522C91.5294 36.842 91.5507 37.1833 91.5507 37.546V46.442C91.5507 46.8047 91.5294 47.1567 91.4867 47.498C91.444 47.818 91.3907 48.138 91.3267 48.458C91.156 49.098 90.932 49.6847 90.6547 50.218C90.356 50.7727 89.9934 51.2633 89.5667 51.69C89.1187 52.138 88.628 52.5113 88.0947 52.81C87.8174 52.9593 87.5294 53.098 87.2307 53.226C86.932 53.3327 86.6227 53.418 86.3027 53.482C85.9614 53.5673 85.6094 53.6313 85.2467 53.674C84.9054 53.7167 84.5427 53.738 84.1587 53.738C83.476 53.738 82.772 53.6527 82.0467 53.482C81.7267 53.418 81.4174 53.3327 81.1187 53.226C80.82 53.098 80.5214 52.9593 80.2227 52.81C79.9454 52.6393 79.6894 52.4687 79.4547 52.298C79.22 52.106 78.9854 51.9033 78.7507 51.69C78.324 51.2207 77.972 50.73 77.6947 50.218C77.524 49.9407 77.3854 49.6527 77.2787 49.354C77.1934 49.0553 77.108 48.7567 77.0227 48.458C76.8734 47.8607 76.7987 47.1887 76.7987 46.442V37.546C76.7987 36.7993 76.8734 36.138 77.0227 35.562C77.108 35.242 77.1934 34.9433 77.2787 34.666C77.3854 34.3673 77.524 34.0687 77.6947 33.77C77.972 33.258 78.324 32.7673 78.7507 32.298C78.9854 32.0847 79.22 31.8927 79.4547 31.722C79.6894 31.53 79.9454 31.3593 80.2227 31.21C80.756 30.9113 81.364 30.6767 82.0467 30.506C82.772 30.3353 83.476 30.25 84.1587 30.25C84.5427 30.25 84.9054 30.2713 85.2467 30.314C85.6094 30.3567 85.9614 30.4207 86.3027 30.506C86.9854 30.6767 87.5827 30.9113 88.0947 31.21C88.3934 31.3593 88.66 31.53 88.8947 31.722C89.1294 31.8927 89.3534 32.0847 89.5667 32.298C89.9934 32.746 90.356 33.2367 90.6547 33.77ZM81.4387 37.738V46.25C81.4387 46.762 81.5027 47.21 81.6307 47.594C81.6734 47.8073 81.7374 47.9993 81.8227 48.17C81.9294 48.3193 82.036 48.4793 82.1427 48.65C82.3774 48.9487 82.6547 49.162 82.9747 49.29C83.2947 49.4393 83.6894 49.514 84.1587 49.514C84.6494 49.514 85.0547 49.4393 85.3747 49.29C85.6947 49.162 85.972 48.9487 86.2067 48.65C86.3134 48.4793 86.4094 48.3193 86.4947 48.17C86.6014 47.9993 86.676 47.8073 86.7187 47.594C86.8467 47.21 86.9107 46.762 86.9107 46.25V37.738C86.9107 37.2687 86.8467 36.8207 86.7187 36.394C86.6334 36.0527 86.4627 35.7007 86.2067 35.338C85.972 35.0393 85.6947 34.826 85.3747 34.698C85.0547 34.5487 84.6494 34.474 84.1587 34.474C83.6894 34.474 83.2947 34.5487 82.9747 34.698C82.6547 34.826 82.3774 35.0393 82.1427 35.338C81.8867 35.7007 81.716 36.0527 81.6307 36.394C81.5027 36.8207 81.4387 37.2687 81.4387 37.738Z" fill="white"/>
<path d="M106.791 42.506C107.559 43.3807 108.028 44.4153 108.199 45.61C108.305 46.2073 108.327 46.794 108.263 47.37C108.199 47.946 108.081 48.5113 107.911 49.066C107.569 50.1753 106.961 51.114 106.087 51.882C105.255 52.65 104.263 53.1833 103.111 53.482C101.873 53.7807 100.657 53.8233 99.4627 53.61C98.2254 53.418 97.1054 52.9487 96.1027 52.202C95.676 51.9033 95.2814 51.5193 94.9187 51.05C94.5774 50.602 94.3 50.154 94.0867 49.706C93.916 49.3433 93.852 48.9807 93.8947 48.618C93.9374 48.234 94.0547 47.8927 94.2467 47.594C94.4387 47.2953 94.6947 47.05 95.0147 46.858C95.356 46.666 95.7294 46.57 96.1347 46.57C96.5614 46.57 96.956 46.6873 97.3187 46.922C97.7027 47.1567 97.9694 47.466 98.1187 47.85C98.1614 47.9353 98.204 48.0207 98.2467 48.106C98.3107 48.17 98.3747 48.2447 98.4387 48.33C98.4814 48.4367 98.5347 48.5327 98.5987 48.618C98.684 48.682 98.7694 48.7567 98.8547 48.842C99.196 49.1407 99.58 49.354 100.007 49.482C100.455 49.61 100.903 49.6527 101.351 49.61C101.799 49.5673 102.215 49.4287 102.599 49.194C102.983 48.9593 103.281 48.6287 103.495 48.202C103.751 47.6687 103.847 47.1887 103.783 46.762C103.74 46.3353 103.591 45.9407 103.335 45.578C103.079 45.2153 102.737 44.9167 102.311 44.682C101.905 44.426 101.479 44.2233 101.031 44.074C100.305 43.818 99.5694 43.5513 98.8227 43.274C98.076 42.9967 97.3827 42.6553 96.7427 42.25C96.0814 41.8233 95.5054 41.3327 95.0147 40.778C94.5454 40.202 94.204 39.4873 93.9907 38.634C93.7347 37.5247 93.7134 36.4793 93.9267 35.498C94.1614 34.4953 94.588 33.61 95.2067 32.842C95.8254 32.0953 96.5934 31.498 97.5107 31.05C98.428 30.5807 99.4414 30.3247 100.551 30.282C101.916 30.218 103.175 30.4633 104.327 31.018C104.881 31.274 105.393 31.594 105.863 31.978C106.332 32.362 106.727 32.81 107.047 33.322C107.281 33.706 107.399 34.1007 107.399 34.506C107.399 34.9113 107.313 35.2847 107.143 35.626C106.951 35.9673 106.684 36.2553 106.343 36.49C106.001 36.7033 105.607 36.81 105.159 36.81H105.127C104.743 36.81 104.369 36.7033 104.007 36.49C103.665 36.2767 103.388 36.01 103.175 35.69C103.068 35.498 102.951 35.3273 102.823 35.178C102.737 35.0927 102.652 35.018 102.567 34.954C102.481 34.8687 102.385 34.7833 102.279 34.698C101.831 34.3993 101.351 34.2713 100.839 34.314C100.327 34.3353 99.8574 34.474 99.4307 34.73C99.0254 34.986 98.7054 35.338 98.4707 35.786C98.2574 36.234 98.2254 36.7353 98.3747 37.29C98.4814 37.7167 98.6734 38.0687 98.9507 38.346C99.228 38.602 99.548 38.826 99.9107 39.018C100.273 39.21 100.657 39.37 101.063 39.498C101.468 39.626 101.852 39.754 102.215 39.882C102.641 40.0313 103.057 40.1913 103.463 40.362C103.889 40.5113 104.295 40.6927 104.679 40.906C105.063 41.1193 105.436 41.354 105.799 41.61C106.161 41.866 106.492 42.1647 106.791 42.506Z" fill="white"/>
</svg>
